<svg width="13" height="12" viewBox="0 0 13 12" fill="none" xmlns="http://www.w3.org/2000/svg">
<g clip-path="url(#clip0_437_5642)">
<path d="M12 5.49988H1C0.723858 5.49988 0.5 5.72374 0.5 5.99988C0.5 6.27602 0.723858 6.49988 1 6.49988H12C12.2761 6.49988 12.5 6.27602 12.5 5.99988C12.5 5.72374 12.2761 5.49988 12 5.49988Z" fill="#4F4B45"/>
<path d="M12 2.00012H1C0.723858 2.00012 0.5 2.22398 0.5 2.50012C0.5 2.77626 0.723858 3.00012 1 3.00012H12C12.2761 3.00012 12.5 2.77626 12.5 2.50012C12.5 2.22398 12.2761 2.00012 12 2.00012Z" fill="#4F4B45"/>
<path d="M12 9H1C0.723858 9 0.5 9.22386 0.5 9.5C0.5 9.77615 0.723858 10 1 10H12C12.2761 10 12.5 9.77615 12.5 9.5C12.5 9.22386 12.2761 9 12 9Z" fill="#4F4B45"/>
</g>
<defs>
<clipPath id="clip0_437_5642">
<rect width="12" height="12" fill="white" transform="translate(0.5)"/>
</clipPath>
</defs>
</svg>
